<svg width="51" height="43" viewBox="0 0 51 43" fill="none" xmlns="http://www.w3.org/2000/svg">
<path d="M21.0321 22C21.5844 22 22.0321 21.5523 22.0321 21C22.0321 20.4477 21.5844 20 21.0321 20C20.4798 20 20.0321 20.4477 20.0321 21C20.0321 21.5523 20.4798 22 21.0321 22Z" stroke="white" stroke-width="2" stroke-linecap="round" stroke-linejoin="round"/>
<path d="M32.0321 22C32.5844 22 33.0321 21.5523 33.0321 21C33.0321 20.4477 32.5844 20 32.0321 20C31.4798 20 31.0321 20.4477 31.0321 21C31.0321 21.5523 31.4798 22 32.0321 22Z" stroke="white" stroke-width="2" stroke-linecap="round" stroke-linejoin="round"/>
<path d="M15.0821 2.05005H17.0821L19.7421 14.47C19.8396 14.9249 20.0927 15.3315 20.4578 15.6199C20.8228 15.9083 21.277 16.0604 21.7421 16.05H31.5221C31.9772 16.0493 32.4185 15.8933 32.7731 15.6079C33.1276 15.3224 33.3742 14.9246 33.4721 14.48L35.1221 7.05005H18.1521" stroke="white" stroke-width="2" stroke-linecap="round" stroke-linejoin="round"/>
<path d="M14.6275 35.2256C14.6275 34.4606 14.8 33.7744 15.145 33.1669C15.49 32.5519 15.9588 32.0719 16.5513 31.7269C17.1513 31.3819 17.815 31.2094 18.5425 31.2094C19.3975 31.2094 20.1438 31.4156 20.7813 31.8281C21.4188 32.2406 21.8838 32.8256 22.1763 33.5831H20.95C20.7325 33.1106 20.4175 32.7469 20.005 32.4919C19.6 32.2369 19.1125 32.1094 18.5425 32.1094C17.995 32.1094 17.5038 32.2369 17.0688 32.4919C16.6338 32.7469 16.2925 33.1106 16.045 33.5831C15.7975 34.0481 15.6738 34.5956 15.6738 35.2256C15.6738 35.8481 15.7975 36.3956 16.045 36.8681C16.2925 37.3331 16.6338 37.6931 17.0688 37.9481C17.5038 38.2031 17.995 38.3306 18.5425 38.3306C19.1125 38.3306 19.6 38.2069 20.005 37.9594C20.4175 37.7044 20.7325 37.3406 20.95 36.8681H22.1763C21.8838 37.6181 21.4188 38.1994 20.7813 38.6119C20.1438 39.0169 19.3975 39.2194 18.5425 39.2194C17.815 39.2194 17.1513 39.0506 16.5513 38.7131C15.9588 38.3681 15.49 37.8919 15.145 37.2844C14.8 36.6769 14.6275 35.9906 14.6275 35.2256ZM23.3177 36.0469C23.3177 35.4169 23.4452 34.8656 23.7002 34.3931C23.9552 33.9131 24.304 33.5419 24.7465 33.2794C25.1965 33.0169 25.6952 32.8856 26.2427 32.8856C26.7827 32.8856 27.2515 33.0019 27.649 33.2344C28.0465 33.4669 28.3427 33.7594 28.5377 34.1119V32.9869H29.5727V39.1519H28.5377V38.0044C28.3352 38.3644 28.0315 38.6644 27.6265 38.9044C27.229 39.1369 26.764 39.2531 26.2315 39.2531C25.684 39.2531 25.189 39.1181 24.7465 38.8481C24.304 38.5781 23.9552 38.1994 23.7002 37.7119C23.4452 37.2244 23.3177 36.6694 23.3177 36.0469ZM28.5377 36.0581C28.5377 35.5931 28.444 35.1881 28.2565 34.8431C28.069 34.4981 27.814 34.2356 27.4915 34.0556C27.1765 33.8681 26.8277 33.7744 26.4452 33.7744C26.0627 33.7744 25.714 33.8644 25.399 34.0444C25.084 34.2244 24.8327 34.4869 24.6452 34.8319C24.4577 35.1769 24.364 35.5819 24.364 36.0469C24.364 36.5194 24.4577 36.9319 24.6452 37.2844C24.8327 37.6294 25.084 37.8956 25.399 38.0831C25.714 38.2631 26.0627 38.3531 26.4452 38.3531C26.8277 38.3531 27.1765 38.2631 27.4915 38.0831C27.814 37.8956 28.069 37.6294 28.2565 37.2844C28.444 36.9319 28.5377 36.5231 28.5377 36.0581ZM32.3265 33.9881C32.5065 33.6356 32.7615 33.3619 33.0915 33.1669C33.429 32.9719 33.8378 32.8744 34.3178 32.8744V33.9319H34.0478C32.9003 33.9319 32.3265 34.5544 32.3265 35.7994V39.1519H31.3028V32.9869H32.3265V33.9881ZM36.7483 33.8306V37.4644C36.7483 37.7644 36.8121 37.9781 36.9396 38.1056C37.0671 38.2256 37.2883 38.2856 37.6033 38.2856H38.3571V39.1519H37.4346C36.8646 39.1519 36.4371 39.0206 36.1521 38.7581C35.8671 38.4956 35.7246 38.0644 35.7246 37.4644V33.8306H34.9258V32.9869H35.7246V31.4344H36.7483V32.9869H38.3571V33.8306H36.7483Z" fill="white"/>
</svg>
