<svg width="34" height="42" viewBox="0 0 34 42" fill="none" xmlns="http://www.w3.org/2000/svg">
<path d="M19.6833 19.6875V12.1875C19.6833 11.9389 19.5845 11.7004 19.4087 11.5246C19.2329 11.3488 18.9944 11.25 18.7458 11.25H14.9958C14.7471 11.25 14.5087 11.3488 14.3329 11.5246C14.1571 11.7004 14.0583 11.9389 14.0583 12.1875V19.6875" stroke="white" stroke-width="2.34375" stroke-linecap="round" stroke-linejoin="round"/>
<path d="M8.43329 9.37496C8.43322 9.10221 8.49266 8.83273 8.60746 8.58532C8.72227 8.33791 8.88966 8.11852 9.09798 7.94246L15.6605 2.31746C15.9989 2.03144 16.4277 1.87451 16.8708 1.87451C17.3139 1.87451 17.7427 2.03144 18.0811 2.31746L24.6436 7.94246C24.8519 8.11852 25.0193 8.33791 25.1341 8.58532C25.2489 8.83273 25.3084 9.10221 25.3083 9.37496V17.8125C25.3083 18.3097 25.1107 18.7867 24.7591 19.1383C24.4075 19.4899 23.9306 19.6875 23.4333 19.6875H10.3083C9.81101 19.6875 9.33409 19.4899 8.98246 19.1383C8.63083 18.7867 8.43329 18.3097 8.43329 17.8125V9.37496Z" stroke="white" stroke-width="2.34375" stroke-linecap="round" stroke-linejoin="round"/>
<path d="M7.13138 29.8106V37.6519H6.10763V34.0969H2.11388V37.6519H1.09013V29.8106H2.11388V33.2531H6.10763V29.8106H7.13138ZM11.5682 37.7531C10.9907 37.7531 10.4657 37.6219 9.99319 37.3594C9.52819 37.0969 9.16069 36.7256 8.89069 36.2456C8.62819 35.7581 8.49694 35.1956 8.49694 34.5581C8.49694 33.9281 8.63194 33.3731 8.90194 32.8931C9.17944 32.4056 9.55444 32.0344 10.0269 31.7794C10.4994 31.5169 11.0282 31.3856 11.6132 31.3856C12.1982 31.3856 12.7269 31.5169 13.1994 31.7794C13.6719 32.0344 14.0432 32.4019 14.3132 32.8819C14.5907 33.3619 14.7294 33.9206 14.7294 34.5581C14.7294 35.1956 14.5869 35.7581 14.3019 36.2456C14.0244 36.7256 13.6457 37.0969 13.1657 37.3594C12.6857 37.6219 12.1532 37.7531 11.5682 37.7531ZM11.5682 36.8531C11.9357 36.8531 12.2807 36.7669 12.6032 36.5944C12.9257 36.4219 13.1844 36.1631 13.3794 35.8181C13.5819 35.4731 13.6832 35.0531 13.6832 34.5581C13.6832 34.0631 13.5857 33.6431 13.3907 33.2981C13.1957 32.9531 12.9407 32.6981 12.6257 32.5331C12.3107 32.3606 11.9694 32.2744 11.6019 32.2744C11.2269 32.2744 10.8819 32.3606 10.5669 32.5331C10.2594 32.6981 10.0119 32.9531 9.82444 33.2981C9.63694 33.6431 9.54319 34.0631 9.54319 34.5581C9.54319 35.0606 9.63319 35.4844 9.81319 35.8294C10.0007 36.1744 10.2482 36.4331 10.5557 36.6056C10.8632 36.7706 11.2007 36.8531 11.5682 36.8531ZM23.4892 31.3744C23.9692 31.3744 24.3967 31.4756 24.7717 31.6781C25.1467 31.8731 25.443 32.1694 25.6605 32.5669C25.878 32.9644 25.9867 33.4481 25.9867 34.0181V37.6519H24.9742V34.1644C24.9742 33.5494 24.8205 33.0806 24.513 32.7581C24.213 32.4281 23.8042 32.2631 23.2867 32.2631C22.7542 32.2631 22.3305 32.4356 22.0155 32.7806C21.7005 33.1181 21.543 33.6094 21.543 34.2544V37.6519H20.5305V34.1644C20.5305 33.5494 20.3767 33.0806 20.0692 32.7581C19.7692 32.4281 19.3605 32.2631 18.843 32.2631C18.3105 32.2631 17.8867 32.4356 17.5717 32.7806C17.2567 33.1181 17.0992 33.6094 17.0992 34.2544V37.6519H16.0755V31.4869H17.0992V32.3756C17.3017 32.0531 17.5717 31.8056 17.9092 31.6331C18.2542 31.4606 18.633 31.3744 19.0455 31.3744C19.563 31.3744 20.0205 31.4906 20.418 31.7231C20.8155 31.9556 21.1117 32.2969 21.3067 32.7469C21.4792 32.3119 21.7642 31.9744 22.1617 31.7344C22.5592 31.4944 23.0017 31.3744 23.4892 31.3744ZM33.2911 34.3331C33.2911 34.5281 33.2798 34.7344 33.2573 34.9519H28.3298C28.3673 35.5594 28.5736 36.0356 28.9486 36.3806C29.3311 36.7181 29.7923 36.8869 30.3323 36.8869C30.7748 36.8869 31.1423 36.7856 31.4348 36.5831C31.7348 36.3731 31.9448 36.0956 32.0648 35.7506H33.1673C33.0023 36.3431 32.6723 36.8269 32.1773 37.2019C31.6823 37.5694 31.0673 37.7531 30.3323 37.7531C29.7473 37.7531 29.2223 37.6219 28.7573 37.3594C28.2998 37.0969 27.9398 36.7256 27.6773 36.2456C27.4148 35.7581 27.2836 35.1956 27.2836 34.5581C27.2836 33.9206 27.4111 33.3619 27.6661 32.8819C27.9211 32.4019 28.2773 32.0344 28.7348 31.7794C29.1998 31.5169 29.7323 31.3856 30.3323 31.3856C30.9173 31.3856 31.4348 31.5131 31.8848 31.7681C32.3348 32.0231 32.6798 32.3756 32.9198 32.8256C33.1673 33.2681 33.2911 33.7706 33.2911 34.3331ZM32.2336 34.1194C32.2336 33.7294 32.1473 33.3956 31.9748 33.1181C31.8023 32.8331 31.5661 32.6194 31.2661 32.4769C30.9736 32.3269 30.6473 32.2519 30.2873 32.2519C29.7698 32.2519 29.3273 32.4169 28.9598 32.7469C28.5998 33.0769 28.3936 33.5344 28.3411 34.1194H32.2336Z" fill="white"/>
</svg>
