<svg width="39" height="42" viewBox="0 0 39 42" fill="none" xmlns="http://www.w3.org/2000/svg">
<path d="M18.0845 20.3719C18.3696 20.5365 18.6929 20.6231 19.022 20.6231C19.3512 20.6231 19.6745 20.5365 19.9595 20.3719L26.522 16.6219C26.8068 16.4575 27.0433 16.2211 27.2078 15.9364C27.3724 15.6518 27.4592 15.3288 27.4595 15V7.50003C27.4592 7.17122 27.3724 6.84829 27.2078 6.56362C27.0433 6.27895 26.8068 6.04256 26.522 5.87816L19.9595 2.12816C19.6745 1.96359 19.3512 1.87695 19.022 1.87695C18.6929 1.87695 18.3696 1.96359 18.0845 2.12816L11.522 5.87816C11.2373 6.04256 11.0008 6.27895 10.8362 6.56362C10.6717 6.84829 10.5849 7.17122 10.5845 7.50003V15C10.5849 15.3288 10.6717 15.6518 10.8362 15.9364C11.0008 16.2211 11.2373 16.4575 11.522 16.6219L18.0845 20.3719Z" stroke="white" stroke-width="1.875" stroke-linecap="round" stroke-linejoin="round"/>
<path d="M19.022 20.625V11.25" stroke="white" stroke-width="1.875" stroke-linecap="round" stroke-linejoin="round"/>
<path d="M10.8564 6.5625L19.022 11.25L27.1877 6.5625" stroke="white" stroke-width="1.875" stroke-linecap="round" stroke-linejoin="round"/>
<path d="M14.8033 4.00317L23.2408 8.8313" stroke="white" stroke-width="1.875" stroke-linecap="round" stroke-linejoin="round"/>
<path d="M4.57421 37.7306C3.84671 37.7306 3.18296 37.5619 2.58296 37.2244C1.98296 36.8794 1.50671 36.4031 1.15421 35.7956C0.809206 35.1806 0.636706 34.4906 0.636706 33.7256C0.636706 32.9606 0.809206 32.2744 1.15421 31.6669C1.50671 31.0519 1.98296 30.5756 2.58296 30.2381C3.18296 29.8931 3.84671 29.7206 4.57421 29.7206C5.30921 29.7206 5.97671 29.8931 6.57671 30.2381C7.17671 30.5756 7.64921 31.0481 7.99421 31.6556C8.33921 32.2631 8.51171 32.9531 8.51171 33.7256C8.51171 34.4981 8.33921 35.1881 7.99421 35.7956C7.64921 36.4031 7.17671 36.8794 6.57671 37.2244C5.97671 37.5619 5.30921 37.7306 4.57421 37.7306ZM4.57421 36.8419C5.12171 36.8419 5.61296 36.7144 6.04796 36.4594C6.49046 36.2044 6.83546 35.8406 7.08296 35.3681C7.33796 34.8956 7.46546 34.3481 7.46546 33.7256C7.46546 33.0956 7.33796 32.5481 7.08296 32.0831C6.83546 31.6106 6.49421 31.2469 6.05921 30.9919C5.62421 30.7369 5.12921 30.6094 4.57421 30.6094C4.01921 30.6094 3.52421 30.7369 3.08921 30.9919C2.65421 31.2469 2.30921 31.6106 2.05421 32.0831C1.80671 32.5481 1.68296 33.0956 1.68296 33.7256C1.68296 34.3481 1.80671 34.8956 2.05421 35.3681C2.30921 35.8406 2.65421 36.2044 3.08921 36.4594C3.53171 36.7144 4.02671 36.8419 4.57421 36.8419ZM10.8869 32.4881C11.0669 32.1356 11.3219 31.8619 11.6519 31.6669C11.9894 31.4719 12.3982 31.3744 12.8782 31.3744V32.4319H12.6082C11.4607 32.4319 10.8869 33.0544 10.8869 34.2994V37.6519H9.8632V31.4869H10.8869V32.4881ZM13.6775 34.5469C13.6775 33.9169 13.805 33.3656 14.06 32.8931C14.315 32.4131 14.6637 32.0419 15.1062 31.7794C15.5562 31.5169 16.0587 31.3856 16.6137 31.3856C17.0937 31.3856 17.54 31.4981 17.9525 31.7231C18.365 31.9406 18.68 32.2294 18.8975 32.5894V29.3269H19.9325V37.6519H18.8975V36.4931C18.695 36.8606 18.395 37.1644 17.9975 37.4044C17.6 37.6369 17.135 37.7531 16.6025 37.7531C16.055 37.7531 15.5562 37.6181 15.1062 37.3481C14.6637 37.0781 14.315 36.6994 14.06 36.2119C13.805 35.7244 13.6775 35.1694 13.6775 34.5469ZM18.8975 34.5581C18.8975 34.0931 18.8037 33.6881 18.6162 33.3431C18.4287 32.9981 18.1737 32.7356 17.8512 32.5556C17.5362 32.3681 17.1875 32.2744 16.805 32.2744C16.4225 32.2744 16.0737 32.3644 15.7587 32.5444C15.4437 32.7244 15.1925 32.9869 15.005 33.3319C14.8175 33.6769 14.7237 34.0819 14.7237 34.5469C14.7237 35.0194 14.8175 35.4319 15.005 35.7844C15.1925 36.1294 15.4437 36.3956 15.7587 36.5831C16.0737 36.7631 16.4225 36.8531 16.805 36.8531C17.1875 36.8531 17.5362 36.7631 17.8512 36.5831C18.1737 36.3956 18.4287 36.1294 18.6162 35.7844C18.8037 35.4319 18.8975 35.0231 18.8975 34.5581ZM27.2875 34.3331C27.2875 34.5281 27.2763 34.7344 27.2538 34.9519H22.3263C22.3638 35.5594 22.57 36.0356 22.945 36.3806C23.3275 36.7181 23.7888 36.8869 24.3288 36.8869C24.7713 36.8869 25.1388 36.7856 25.4313 36.5831C25.7313 36.3731 25.9413 36.0956 26.0613 35.7506H27.1638C26.9988 36.3431 26.6688 36.8269 26.1738 37.2019C25.6788 37.5694 25.0638 37.7531 24.3288 37.7531C23.7438 37.7531 23.2188 37.6219 22.7538 37.3594C22.2963 37.0969 21.9363 36.7256 21.6738 36.2456C21.4113 35.7581 21.28 35.1956 21.28 34.5581C21.28 33.9206 21.4075 33.3619 21.6625 32.8819C21.9175 32.4019 22.2738 32.0344 22.7313 31.7794C23.1963 31.5169 23.7288 31.3856 24.3288 31.3856C24.9138 31.3856 25.4313 31.5131 25.8813 31.7681C26.3313 32.0231 26.6763 32.3756 26.9163 32.8256C27.1638 33.2681 27.2875 33.7706 27.2875 34.3331ZM26.23 34.1194C26.23 33.7294 26.1438 33.3956 25.9713 33.1181C25.7988 32.8331 25.5625 32.6194 25.2625 32.4769C24.97 32.3269 24.6438 32.2519 24.2838 32.2519C23.7663 32.2519 23.3238 32.4169 22.9563 32.7469C22.5963 33.0769 22.39 33.5344 22.3375 34.1194H26.23ZM29.6626 32.4881C29.8426 32.1356 30.0976 31.8619 30.4276 31.6669C30.7651 31.4719 31.1738 31.3744 31.6538 31.3744V32.4319H31.3838C30.2363 32.4319 29.6626 33.0544 29.6626 34.2994V37.6519H28.6388V31.4869H29.6626V32.4881ZM35.0181 37.7531C34.5456 37.7531 34.1219 37.6744 33.7469 37.5169C33.3719 37.3519 33.0756 37.1269 32.8581 36.8419C32.6406 36.5494 32.5206 36.2156 32.4981 35.8406H33.5556C33.5856 36.1481 33.7281 36.3994 33.9831 36.5944C34.2456 36.7894 34.5869 36.8869 35.0069 36.8869C35.3969 36.8869 35.7044 36.8006 35.9294 36.6281C36.1544 36.4556 36.2669 36.2381 36.2669 35.9756C36.2669 35.7056 36.1469 35.5069 35.9069 35.3794C35.6669 35.2444 35.2956 35.1131 34.7931 34.9856C34.3356 34.8656 33.9606 34.7456 33.6681 34.6256C33.3831 34.4981 33.1356 34.3144 32.9256 34.0744C32.7231 33.8269 32.6219 33.5044 32.6219 33.1069C32.6219 32.7919 32.7156 32.5031 32.9031 32.2406C33.0906 31.9781 33.3569 31.7719 33.7019 31.6219C34.0469 31.4644 34.4406 31.3856 34.8831 31.3856C35.5656 31.3856 36.1169 31.5581 36.5369 31.9031C36.9569 32.2481 37.1819 32.7206 37.2119 33.3206H36.1881C36.1656 32.9981 36.0344 32.7394 35.7944 32.5444C35.5619 32.3494 35.2469 32.2519 34.8494 32.2519C34.4819 32.2519 34.1894 32.3306 33.9719 32.4881C33.7544 32.6456 33.6456 32.8519 33.6456 33.1069C33.6456 33.3094 33.7094 33.4781 33.8369 33.6131C33.9719 33.7406 34.1369 33.8456 34.3319 33.9281C34.5344 34.0031 34.8119 34.0894 35.1644 34.1869C35.6069 34.3069 35.9669 34.4269 36.2444 34.5469C36.5219 34.6594 36.7581 34.8319 36.9531 35.0644C37.1556 35.2969 37.2606 35.6006 37.2681 35.9756C37.2681 36.3131 37.1744 36.6169 36.9869 36.8869C36.7994 37.1569 36.5331 37.3706 36.1881 37.5281C35.8506 37.6781 35.4606 37.7531 35.0181 37.7531Z" fill="white"/>
</svg>
