<svg width="36" height="42" viewBox="0 0 36 42" fill="none" xmlns="http://www.w3.org/2000/svg">
<path d="M23.969 19.6875V17.8125C23.969 16.8179 23.5739 15.8641 22.8707 15.1609C22.1674 14.4576 21.2136 14.0625 20.219 14.0625H14.594C13.5995 14.0625 12.6456 14.4576 11.9424 15.1609C11.2391 15.8641 10.844 16.8179 10.844 17.8125V19.6875" stroke="white" stroke-width="1.875" stroke-linecap="round" stroke-linejoin="round"/>
<path d="M17.4065 10.3125C19.4776 10.3125 21.1565 8.63357 21.1565 6.5625C21.1565 4.49143 19.4776 2.8125 17.4065 2.8125C15.3355 2.8125 13.6565 4.49143 13.6565 6.5625C13.6565 8.63357 15.3355 10.3125 17.4065 10.3125Z" stroke="white" stroke-width="1.875" stroke-linecap="round" stroke-linejoin="round"/>
<path d="M7.48448 32.1056C7.48448 32.7581 7.25948 33.3019 6.80948 33.7369C6.36698 34.1644 5.68823 34.3781 4.77323 34.3781H3.26573V37.6519H2.24198V29.8106H4.77323C5.65823 29.8106 6.32948 30.0244 6.78698 30.4519C7.25198 30.8794 7.48448 31.4306 7.48448 32.1056ZM4.77323 33.5344C5.34323 33.5344 5.76323 33.4106 6.03323 33.1631C6.30323 32.9156 6.43823 32.5631 6.43823 32.1056C6.43823 31.1381 5.88323 30.6544 4.77323 30.6544H3.26573V33.5344H4.77323ZM9.78063 32.4881C9.96063 32.1356 10.2156 31.8619 10.5456 31.6669C10.8831 31.4719 11.2919 31.3744 11.7719 31.3744V32.4319H11.5019C10.3544 32.4319 9.78063 33.0544 9.78063 34.2994V37.6519H8.75688V31.4869H9.78063V32.4881ZM15.6424 37.7531C15.0649 37.7531 14.5399 37.6219 14.0674 37.3594C13.6024 37.0969 13.2349 36.7256 12.9649 36.2456C12.7024 35.7581 12.5712 35.1956 12.5712 34.5581C12.5712 33.9281 12.7062 33.3731 12.9762 32.8931C13.2537 32.4056 13.6287 32.0344 14.1012 31.7794C14.5737 31.5169 15.1024 31.3856 15.6874 31.3856C16.2724 31.3856 16.8012 31.5169 17.2737 31.7794C17.7462 32.0344 18.1174 32.4019 18.3874 32.8819C18.6649 33.3619 18.8037 33.9206 18.8037 34.5581C18.8037 35.1956 18.6612 35.7581 18.3762 36.2456C18.0987 36.7256 17.7199 37.0969 17.2399 37.3594C16.7599 37.6219 16.2274 37.7531 15.6424 37.7531ZM15.6424 36.8531C16.0099 36.8531 16.3549 36.7669 16.6774 36.5944C16.9999 36.4219 17.2587 36.1631 17.4537 35.8181C17.6562 35.4731 17.7574 35.0531 17.7574 34.5581C17.7574 34.0631 17.6599 33.6431 17.4649 33.2981C17.2699 32.9531 17.0149 32.6981 16.6999 32.5331C16.3849 32.3606 16.0437 32.2744 15.6762 32.2744C15.3012 32.2744 14.9562 32.3606 14.6412 32.5331C14.3337 32.6981 14.0862 32.9531 13.8987 33.2981C13.7112 33.6431 13.6174 34.0631 13.6174 34.5581C13.6174 35.0606 13.7074 35.4844 13.8874 35.8294C14.0749 36.1744 14.3224 36.4331 14.6299 36.6056C14.9374 36.7706 15.2749 36.8531 15.6424 36.8531ZM22.6584 32.3306H21.3647V37.6519H20.3409V32.3306H19.5422V31.4869H20.3409V31.0481C20.3409 30.3581 20.5172 29.8556 20.8697 29.5406C21.2297 29.2181 21.8034 29.0569 22.5909 29.0569V29.9119C22.1409 29.9119 21.8222 30.0019 21.6347 30.1819C21.4547 30.3544 21.3647 30.6431 21.3647 31.0481V31.4869H22.6584V32.3306ZM24.3808 30.4856C24.1858 30.4856 24.0208 30.4181 23.8858 30.2831C23.7508 30.1481 23.6833 29.9831 23.6833 29.7881C23.6833 29.5931 23.7508 29.4281 23.8858 29.2931C24.0208 29.1581 24.1858 29.0906 24.3808 29.0906C24.5683 29.0906 24.7258 29.1581 24.8533 29.2931C24.9883 29.4281 25.0558 29.5931 25.0558 29.7881C25.0558 29.9831 24.9883 30.1481 24.8533 30.2831C24.7258 30.4181 24.5683 30.4856 24.3808 30.4856ZM24.8758 31.4869V37.6519H23.8521V31.4869H24.8758ZM27.6444 29.3269V37.6519H26.6206V29.3269H27.6444ZM35.0142 34.3331C35.0142 34.5281 35.0029 34.7344 34.9804 34.9519H30.0529C30.0904 35.5594 30.2967 36.0356 30.6717 36.3806C31.0542 36.7181 31.5154 36.8869 32.0554 36.8869C32.4979 36.8869 32.8654 36.7856 33.1579 36.5831C33.4579 36.3731 33.6679 36.0956 33.7879 35.7506H34.8904C34.7254 36.3431 34.3954 36.8269 33.9004 37.2019C33.4054 37.5694 32.7904 37.7531 32.0554 37.7531C31.4704 37.7531 30.9454 37.6219 30.4804 37.3594C30.0229 37.0969 29.6629 36.7256 29.4004 36.2456C29.1379 35.7581 29.0067 35.1956 29.0067 34.5581C29.0067 33.9206 29.1342 33.3619 29.3892 32.8819C29.6442 32.4019 30.0004 32.0344 30.4579 31.7794C30.9229 31.5169 31.4554 31.3856 32.0554 31.3856C32.6404 31.3856 33.1579 31.5131 33.6079 31.7681C34.0579 32.0231 34.4029 32.3756 34.6429 32.8256C34.8904 33.2681 35.0142 33.7706 35.0142 34.3331ZM33.9567 34.1194C33.9567 33.7294 33.8704 33.3956 33.6979 33.1181C33.5254 32.8331 33.2892 32.6194 32.9892 32.4769C32.6967 32.3269 32.3704 32.2519 32.0104 32.2519C31.4929 32.2519 31.0504 32.4169 30.6829 32.7469C30.3229 33.0769 30.1167 33.5344 30.0642 34.1194H33.9567Z" fill="white"/>
</svg>
