<svg width="36" height="42" viewBox="0 0 36 42" fill="none" xmlns="http://www.w3.org/2000/svg">
<path d="M23.969 19.6875V17.8125C23.969 16.8179 23.5739 15.8641 22.8706 15.1609C22.1674 14.4576 21.2136 14.0625 20.219 14.0625H14.594C13.5994 14.0625 12.6456 14.4576 11.9423 15.1609C11.2391 15.8641 10.844 16.8179 10.844 17.8125V19.6875" stroke="#017D73" stroke-width="1.875" stroke-linecap="round" stroke-linejoin="round"/>
<path d="M17.4065 10.3125C19.4776 10.3125 21.1565 8.63357 21.1565 6.5625C21.1565 4.49143 19.4776 2.8125 17.4065 2.8125C15.3354 2.8125 13.6565 4.49143 13.6565 6.5625C13.6565 8.63357 15.3354 10.3125 17.4065 10.3125Z" stroke="#017D73" stroke-width="1.875" stroke-linecap="round" stroke-linejoin="round"/>
<path d="M7.48448 32.1055C7.48448 32.758 7.25948 33.3018 6.80948 33.7368C6.36698 34.1643 5.68823 34.378 4.77323 34.378H3.26573V37.6518H2.24198V29.8105H4.77323C5.65823 29.8105 6.32948 30.0243 6.78698 30.4518C7.25198 30.8793 7.48448 31.4305 7.48448 32.1055ZM4.77323 33.5343C5.34323 33.5343 5.76323 33.4105 6.03323 33.163C6.30323 32.9155 6.43823 32.563 6.43823 32.1055C6.43823 31.138 5.88323 30.6543 4.77323 30.6543H3.26573V33.5343H4.77323ZM9.78063 32.488C9.96063 32.1355 10.2156 31.8618 10.5456 31.6668C10.8831 31.4718 11.2919 31.3743 11.7719 31.3743V32.4318H11.5019C10.3544 32.4318 9.78063 33.0543 9.78063 34.2993V37.6518H8.75688V31.4868H9.78063V32.488ZM15.6424 37.753C15.0649 37.753 14.5399 37.6218 14.0674 37.3593C13.6024 37.0968 13.2349 36.7255 12.9649 36.2455C12.7024 35.758 12.5712 35.1955 12.5712 34.558C12.5712 33.928 12.7062 33.373 12.9762 32.893C13.2537 32.4055 13.6287 32.0343 14.1012 31.7793C14.5737 31.5168 15.1024 31.3855 15.6874 31.3855C16.2724 31.3855 16.8012 31.5168 17.2737 31.7793C17.7462 32.0343 18.1174 32.4018 18.3874 32.8818C18.6649 33.3618 18.8037 33.9205 18.8037 34.558C18.8037 35.1955 18.6612 35.758 18.3762 36.2455C18.0987 36.7255 17.7199 37.0968 17.2399 37.3593C16.7599 37.6218 16.2274 37.753 15.6424 37.753ZM15.6424 36.853C16.0099 36.853 16.3549 36.7668 16.6774 36.5943C16.9999 36.4218 17.2587 36.163 17.4537 35.818C17.6562 35.473 17.7574 35.053 17.7574 34.558C17.7574 34.063 17.6599 33.643 17.4649 33.298C17.2699 32.953 17.0149 32.698 16.6999 32.533C16.3849 32.3605 16.0437 32.2743 15.6762 32.2743C15.3012 32.2743 14.9562 32.3605 14.6412 32.533C14.3337 32.698 14.0862 32.953 13.8987 33.298C13.7112 33.643 13.6174 34.063 13.6174 34.558C13.6174 35.0605 13.7074 35.4843 13.8874 35.8293C14.0749 36.1743 14.3224 36.433 14.6299 36.6055C14.9374 36.7705 15.2749 36.853 15.6424 36.853ZM22.6584 32.3305H21.3647V37.6518H20.3409V32.3305H19.5422V31.4868H20.3409V31.048C20.3409 30.358 20.5172 29.8555 20.8697 29.5405C21.2297 29.218 21.8034 29.0568 22.5909 29.0568V29.9118C22.1409 29.9118 21.8222 30.0018 21.6347 30.1818C21.4547 30.3543 21.3647 30.643 21.3647 31.048V31.4868H22.6584V32.3305ZM24.3808 30.4855C24.1858 30.4855 24.0208 30.418 23.8858 30.283C23.7508 30.148 23.6833 29.983 23.6833 29.788C23.6833 29.593 23.7508 29.428 23.8858 29.293C24.0208 29.158 24.1858 29.0905 24.3808 29.0905C24.5683 29.0905 24.7258 29.158 24.8533 29.293C24.9883 29.428 25.0558 29.593 25.0558 29.788C25.0558 29.983 24.9883 30.148 24.8533 30.283C24.7258 30.418 24.5683 30.4855 24.3808 30.4855ZM24.8758 31.4868V37.6518H23.8521V31.4868H24.8758ZM27.6444 29.3268V37.6518H26.6206V29.3268H27.6444ZM35.0142 34.333C35.0142 34.528 35.0029 34.7343 34.9804 34.9518H30.0529C30.0904 35.5593 30.2967 36.0355 30.6717 36.3805C31.0542 36.718 31.5154 36.8868 32.0554 36.8868C32.4979 36.8868 32.8654 36.7855 33.1579 36.583C33.4579 36.373 33.6679 36.0955 33.7879 35.7505H34.8904C34.7254 36.343 34.3954 36.8268 33.9004 37.2018C33.4054 37.5693 32.7904 37.753 32.0554 37.753C31.4704 37.753 30.9454 37.6218 30.4804 37.3593C30.0229 37.0968 29.6629 36.7255 29.4004 36.2455C29.1379 35.758 29.0067 35.1955 29.0067 34.558C29.0067 33.9205 29.1342 33.3618 29.3892 32.8818C29.6442 32.4018 30.0004 32.0343 30.4579 31.7793C30.9229 31.5168 31.4554 31.3855 32.0554 31.3855C32.6404 31.3855 33.1579 31.513 33.6079 31.768C34.0579 32.023 34.4029 32.3755 34.6429 32.8255C34.8904 33.268 35.0142 33.7705 35.0142 34.333ZM33.9567 34.1193C33.9567 33.7293 33.8704 33.3955 33.6979 33.118C33.5254 32.833 33.2892 32.6193 32.9892 32.4768C32.6967 32.3268 32.3704 32.2518 32.0104 32.2518C31.4929 32.2518 31.0504 32.4168 30.6829 32.7468C30.3229 33.0768 30.1167 33.5343 30.0642 34.1193H33.9567Z" fill="#017D73"/>
</svg>
