<svg width="51" height="43" viewBox="0 0 51 43" fill="none" xmlns="http://www.w3.org/2000/svg">
<path d="M21.0321 22C21.5844 22 22.0321 21.5523 22.0321 21C22.0321 20.4477 21.5844 20 21.0321 20C20.4798 20 20.0321 20.4477 20.0321 21C20.0321 21.5523 20.4798 22 21.0321 22Z" stroke="#017D73" stroke-width="2" stroke-linecap="round" stroke-linejoin="round"/>
<path d="M32.0321 22C32.5844 22 33.0321 21.5523 33.0321 21C33.0321 20.4477 32.5844 20 32.0321 20C31.4798 20 31.0321 20.4477 31.0321 21C31.0321 21.5523 31.4798 22 32.0321 22Z" stroke="#017D73" stroke-width="2" stroke-linecap="round" stroke-linejoin="round"/>
<path d="M15.0821 2.04999H17.0821L19.7421 14.47C19.8397 14.9248 20.0928 15.3315 20.4578 15.6198C20.8228 15.9082 21.277 16.0603 21.7421 16.05H31.5221C31.9773 16.0493 32.4186 15.8933 32.7731 15.6078C33.1277 15.3224 33.3742 14.9245 33.4721 14.48L35.1221 7.04999H18.1521" stroke="#017D73" stroke-width="2" stroke-linecap="round" stroke-linejoin="round"/>
<path d="M14.6275 35.2255C14.6275 34.4605 14.8 33.7743 15.145 33.1668C15.49 32.5518 15.9588 32.0718 16.5513 31.7268C17.1513 31.3818 17.815 31.2093 18.5425 31.2093C19.3975 31.2093 20.1438 31.4155 20.7813 31.828C21.4188 32.2405 21.8838 32.8255 22.1763 33.583H20.95C20.7325 33.1105 20.4175 32.7468 20.005 32.4918C19.6 32.2368 19.1125 32.1093 18.5425 32.1093C17.995 32.1093 17.5038 32.2368 17.0688 32.4918C16.6338 32.7468 16.2925 33.1105 16.045 33.583C15.7975 34.048 15.6738 34.5955 15.6738 35.2255C15.6738 35.848 15.7975 36.3955 16.045 36.868C16.2925 37.333 16.6338 37.693 17.0688 37.948C17.5038 38.203 17.995 38.3305 18.5425 38.3305C19.1125 38.3305 19.6 38.2068 20.005 37.9593C20.4175 37.7043 20.7325 37.3405 20.95 36.868H22.1763C21.8838 37.618 21.4188 38.1993 20.7813 38.6118C20.1438 39.0168 19.3975 39.2193 18.5425 39.2193C17.815 39.2193 17.1513 39.0505 16.5513 38.713C15.9588 38.368 15.49 37.8918 15.145 37.2843C14.8 36.6768 14.6275 35.9905 14.6275 35.2255ZM23.3177 36.0468C23.3177 35.4168 23.4452 34.8655 23.7002 34.393C23.9552 33.913 24.304 33.5418 24.7465 33.2793C25.1965 33.0168 25.6952 32.8855 26.2427 32.8855C26.7827 32.8855 27.2515 33.0018 27.649 33.2343C28.0465 33.4668 28.3427 33.7593 28.5377 34.1118V32.9868H29.5727V39.1518H28.5377V38.0043C28.3352 38.3643 28.0315 38.6643 27.6265 38.9043C27.229 39.1368 26.764 39.253 26.2315 39.253C25.684 39.253 25.189 39.118 24.7465 38.848C24.304 38.578 23.9552 38.1993 23.7002 37.7118C23.4452 37.2243 23.3177 36.6693 23.3177 36.0468ZM28.5377 36.058C28.5377 35.593 28.444 35.188 28.2565 34.843C28.069 34.498 27.814 34.2355 27.4915 34.0555C27.1765 33.868 26.8277 33.7743 26.4452 33.7743C26.0627 33.7743 25.714 33.8643 25.399 34.0443C25.084 34.2243 24.8327 34.4868 24.6452 34.8318C24.4577 35.1768 24.364 35.5818 24.364 36.0468C24.364 36.5193 24.4577 36.9318 24.6452 37.2843C24.8327 37.6293 25.084 37.8955 25.399 38.083C25.714 38.263 26.0627 38.353 26.4452 38.353C26.8277 38.353 27.1765 38.263 27.4915 38.083C27.814 37.8955 28.069 37.6293 28.2565 37.2843C28.444 36.9318 28.5377 36.523 28.5377 36.058ZM32.3265 33.988C32.5065 33.6355 32.7615 33.3618 33.0915 33.1668C33.429 32.9718 33.8378 32.8743 34.3178 32.8743V33.9318H34.0478C32.9003 33.9318 32.3265 34.5543 32.3265 35.7993V39.1518H31.3028V32.9868H32.3265V33.988ZM36.7483 33.8305V37.4643C36.7483 37.7643 36.8121 37.978 36.9396 38.1055C37.0671 38.2255 37.2883 38.2855 37.6033 38.2855H38.3571V39.1518H37.4346C36.8646 39.1518 36.4371 39.0205 36.1521 38.758C35.8671 38.4955 35.7246 38.0643 35.7246 37.4643V33.8305H34.9258V32.9868H35.7246V31.4343H36.7483V32.9868H38.3571V33.8305H36.7483Z" fill="#017D73"/>
</svg>
