<svg width="39" height="42" viewBox="0 0 39 42" fill="none" xmlns="http://www.w3.org/2000/svg">
<path d="M18.0846 20.3719C18.3696 20.5365 18.693 20.6231 19.0221 20.6231C19.3512 20.6231 19.6746 20.5365 19.9596 20.3719L26.5221 16.6219C26.8068 16.4575 27.0434 16.2211 27.2079 15.9364C27.3725 15.6518 27.4593 15.3288 27.4596 15V7.50003C27.4593 7.17122 27.3725 6.84829 27.2079 6.56362C27.0434 6.27895 26.8068 6.04256 26.5221 5.87816L19.9596 2.12816C19.6746 1.96359 19.3512 1.87695 19.0221 1.87695C18.693 1.87695 18.3696 1.96359 18.0846 2.12816L11.5221 5.87816C11.2373 6.04256 11.0008 6.27895 10.8363 6.56362C10.6717 6.84829 10.5849 7.17122 10.5846 7.50003V15C10.5849 15.3288 10.6717 15.6518 10.8363 15.9364C11.0008 16.2211 11.2373 16.4575 11.5221 16.6219L18.0846 20.3719Z" stroke="#017D73" stroke-width="1.875" stroke-linecap="round" stroke-linejoin="round"/>
<path d="M19.0221 20.625V11.25" stroke="#017D73" stroke-width="1.875" stroke-linecap="round" stroke-linejoin="round"/>
<path d="M10.8566 6.5625L19.0222 11.25L27.1878 6.5625" stroke="#017D73" stroke-width="1.875" stroke-linecap="round" stroke-linejoin="round"/>
<path d="M14.8033 4.00311L23.2408 8.83124" stroke="#017D73" stroke-width="1.875" stroke-linecap="round" stroke-linejoin="round"/>
<path d="M4.57421 37.7305C3.84671 37.7305 3.18296 37.5618 2.58296 37.2243C1.98296 36.8793 1.50671 36.403 1.15421 35.7955C0.809206 35.1805 0.636706 34.4905 0.636706 33.7255C0.636706 32.9605 0.809206 32.2743 1.15421 31.6668C1.50671 31.0518 1.98296 30.5755 2.58296 30.238C3.18296 29.893 3.84671 29.7205 4.57421 29.7205C5.30921 29.7205 5.97671 29.893 6.57671 30.238C7.17671 30.5755 7.64921 31.048 7.99421 31.6555C8.33921 32.263 8.51171 32.953 8.51171 33.7255C8.51171 34.498 8.33921 35.188 7.99421 35.7955C7.64921 36.403 7.17671 36.8793 6.57671 37.2243C5.97671 37.5618 5.30921 37.7305 4.57421 37.7305ZM4.57421 36.8418C5.12171 36.8418 5.61296 36.7143 6.04796 36.4593C6.49046 36.2043 6.83546 35.8405 7.08296 35.368C7.33796 34.8955 7.46546 34.348 7.46546 33.7255C7.46546 33.0955 7.33796 32.548 7.08296 32.083C6.83546 31.6105 6.49421 31.2468 6.05921 30.9918C5.62421 30.7368 5.12921 30.6093 4.57421 30.6093C4.01921 30.6093 3.52421 30.7368 3.08921 30.9918C2.65421 31.2468 2.30921 31.6105 2.05421 32.083C1.80671 32.548 1.68296 33.0955 1.68296 33.7255C1.68296 34.348 1.80671 34.8955 2.05421 35.368C2.30921 35.8405 2.65421 36.2043 3.08921 36.4593C3.53171 36.7143 4.02671 36.8418 4.57421 36.8418ZM10.8869 32.488C11.0669 32.1355 11.3219 31.8618 11.6519 31.6668C11.9894 31.4718 12.3982 31.3743 12.8782 31.3743V32.4318H12.6082C11.4607 32.4318 10.8869 33.0543 10.8869 34.2993V37.6518H9.8632V31.4868H10.8869V32.488ZM13.6775 34.5468C13.6775 33.9168 13.805 33.3655 14.06 32.893C14.315 32.413 14.6637 32.0418 15.1062 31.7793C15.5562 31.5168 16.0587 31.3855 16.6137 31.3855C17.0937 31.3855 17.54 31.498 17.9525 31.723C18.365 31.9405 18.68 32.2293 18.8975 32.5893V29.3268H19.9325V37.6518H18.8975V36.493C18.695 36.8605 18.395 37.1643 17.9975 37.4043C17.6 37.6368 17.135 37.753 16.6025 37.753C16.055 37.753 15.5562 37.618 15.1062 37.348C14.6637 37.078 14.315 36.6993 14.06 36.2118C13.805 35.7243 13.6775 35.1693 13.6775 34.5468ZM18.8975 34.558C18.8975 34.093 18.8037 33.688 18.6162 33.343C18.4287 32.998 18.1737 32.7355 17.8512 32.5555C17.5362 32.368 17.1875 32.2743 16.805 32.2743C16.4225 32.2743 16.0737 32.3643 15.7587 32.5443C15.4437 32.7243 15.1925 32.9868 15.005 33.3318C14.8175 33.6768 14.7237 34.0818 14.7237 34.5468C14.7237 35.0193 14.8175 35.4318 15.005 35.7843C15.1925 36.1293 15.4437 36.3955 15.7587 36.583C16.0737 36.763 16.4225 36.853 16.805 36.853C17.1875 36.853 17.5362 36.763 17.8512 36.583C18.1737 36.3955 18.4287 36.1293 18.6162 35.7843C18.8037 35.4318 18.8975 35.023 18.8975 34.558ZM27.2875 34.333C27.2875 34.528 27.2763 34.7343 27.2538 34.9518H22.3263C22.3638 35.5593 22.57 36.0355 22.945 36.3805C23.3275 36.718 23.7888 36.8868 24.3288 36.8868C24.7713 36.8868 25.1388 36.7855 25.4313 36.583C25.7313 36.373 25.9413 36.0955 26.0613 35.7505H27.1638C26.9988 36.343 26.6688 36.8268 26.1738 37.2018C25.6788 37.5693 25.0638 37.753 24.3288 37.753C23.7438 37.753 23.2188 37.6218 22.7538 37.3593C22.2963 37.0968 21.9363 36.7255 21.6738 36.2455C21.4113 35.758 21.28 35.1955 21.28 34.558C21.28 33.9205 21.4075 33.3618 21.6625 32.8818C21.9175 32.4018 22.2738 32.0343 22.7313 31.7793C23.1963 31.5168 23.7288 31.3855 24.3288 31.3855C24.9138 31.3855 25.4313 31.513 25.8813 31.768C26.3313 32.023 26.6763 32.3755 26.9163 32.8255C27.1638 33.268 27.2875 33.7705 27.2875 34.333ZM26.23 34.1193C26.23 33.7293 26.1438 33.3955 25.9713 33.118C25.7988 32.833 25.5625 32.6193 25.2625 32.4768C24.97 32.3268 24.6438 32.2518 24.2838 32.2518C23.7663 32.2518 23.3238 32.4168 22.9563 32.7468C22.5963 33.0768 22.39 33.5343 22.3375 34.1193H26.23ZM29.6626 32.488C29.8426 32.1355 30.0976 31.8618 30.4276 31.6668C30.7651 31.4718 31.1738 31.3743 31.6538 31.3743V32.4318H31.3838C30.2363 32.4318 29.6626 33.0543 29.6626 34.2993V37.6518H28.6388V31.4868H29.6626V32.488ZM35.0181 37.753C34.5456 37.753 34.1219 37.6743 33.7469 37.5168C33.3719 37.3518 33.0756 37.1268 32.8581 36.8418C32.6406 36.5493 32.5206 36.2155 32.4981 35.8405H33.5556C33.5856 36.148 33.7281 36.3993 33.9831 36.5943C34.2456 36.7893 34.5869 36.8868 35.0069 36.8868C35.3969 36.8868 35.7044 36.8005 35.9294 36.628C36.1544 36.4555 36.2669 36.238 36.2669 35.9755C36.2669 35.7055 36.1469 35.5068 35.9069 35.3793C35.6669 35.2443 35.2956 35.113 34.7931 34.9855C34.3356 34.8655 33.9606 34.7455 33.6681 34.6255C33.3831 34.498 33.1356 34.3143 32.9256 34.0743C32.7231 33.8268 32.6219 33.5043 32.6219 33.1068C32.6219 32.7918 32.7156 32.503 32.9031 32.2405C33.0906 31.978 33.3569 31.7718 33.7019 31.6218C34.0469 31.4643 34.4406 31.3855 34.8831 31.3855C35.5656 31.3855 36.1169 31.558 36.5369 31.903C36.9569 32.248 37.1819 32.7205 37.2119 33.3205H36.1881C36.1656 32.998 36.0344 32.7393 35.7944 32.5443C35.5619 32.3493 35.2469 32.2518 34.8494 32.2518C34.4819 32.2518 34.1894 32.3305 33.9719 32.488C33.7544 32.6455 33.6456 32.8518 33.6456 33.1068C33.6456 33.3093 33.7094 33.478 33.8369 33.613C33.9719 33.7405 34.1369 33.8455 34.3319 33.928C34.5344 34.003 34.8119 34.0893 35.1644 34.1868C35.6069 34.3068 35.9669 34.4268 36.2444 34.5468C36.5219 34.6593 36.7581 34.8318 36.9531 35.0643C37.1556 35.2968 37.2606 35.6005 37.2681 35.9755C37.2681 36.313 37.1744 36.6168 36.9869 36.8868C36.7994 37.1568 36.5331 37.3705 36.1881 37.528C35.8506 37.678 35.4606 37.753 35.0181 37.753Z" fill="#017D73"/>
</svg>
