<svg width="15" height="15" viewBox="0 0 15 15" fill="none" xmlns="http://www.w3.org/2000/svg">
<g clip-path="url(#clip0_8_253)">
<path d="M6 6.60001V10.2" stroke="#FB2C36" stroke-width="1.2" stroke-linecap="round" stroke-linejoin="round"/>
<path d="M8.39996 6.60001V10.2" stroke="#FB2C36" stroke-width="1.2" stroke-linecap="round" stroke-linejoin="round"/>
<path d="M11.4 3.59999V12C11.4 12.3183 11.2736 12.6235 11.0485 12.8485C10.8235 13.0736 10.5183 13.2 10.2 13.2H4.2C3.88174 13.2 3.57652 13.0736 3.35147 12.8485C3.12643 12.6235 3 12.3183 3 12V3.59999" stroke="#FB2C36" stroke-width="1.2" stroke-linecap="round" stroke-linejoin="round"/>
<path d="M1.79999 3.59999H12.6" stroke="#FB2C36" stroke-width="1.2" stroke-linecap="round" stroke-linejoin="round"/>
<path d="M4.79993 3.60001V2.40001C4.79993 2.08175 4.92636 1.77653 5.1514 1.55148C5.37644 1.32644 5.68167 1.20001 5.99993 1.20001H8.39993C8.71819 1.20001 9.02341 1.32644 9.24845 1.55148C9.4735 1.77653 9.59993 2.08175 9.59993 2.40001V3.60001" stroke="#FB2C36" stroke-width="1.2" stroke-linecap="round" stroke-linejoin="round"/>
</g>
<defs>
<clipPath id="clip0_8_253">
<rect width="14.4" height="14.4" fill="white"/>
</clipPath>
</defs>
</svg>
